#!OML:ASF H:\Terrain\Patient Classification 1\Animal2\Wednesday\Animal2.ASF
:FULLY-SPECIFIED
:DEGREES
3823
root 19.5565 17.976 -16.4837 193.894 -192.499 -177.839
lowerback 18.7435 -1.35157 3.25786
upperback 13.8903 -1.18277 1.7468
thorax 4.52438 -0.380332 0.204736
lowerneck 1.80297 2.22927 14.3181
upperneck 35.9894 4.29243 -7.9973
head 12.0557 2.98785 -5.24244
rclavicle 7.15625e-015 1.19271e-015
rhumerus -17.3351 -41.0066 -34.4906
rradius 59.331
rwrist -45.5557
rhand -2.82638 3.07085
rfingers 7.12502
rthumb 22.8806 -25.5917
lclavicle 7.15625e-015 1.19271e-015
lhumerus -28.9378 30.2375 27.0515
lradius 56.3971
lwrist 73.9765
lhand -30.7815 20.1628
lfingers 7.12502
lthumb -4.07216 50.1036
rfemur -26.0487 -6.42792 20.7839
rtibia 29.8465
rfoot -18.8201 -1.3058
rtoes 33.3347
lfemur -23.7406 -2.86877 -19.3821
ltibia 22.5554
lfoot -11.514 1.1204
ltoes -32.8958
3824
root 19.5548 17.9775 -16.4806 193.827 -192.533 -177.884
lowerback 18.6644 -1.34861 3.28992
upperback 13.8942 -1.17895 1.75705
thorax 4.56906 -0.376069 0.195928
lowerneck 2.05226 2.23424 14.356
upperneck 35.8009 4.32455 -7.99357
head 11.932 3.00601 -5.23771
rclavicle 3.33958e-014 6.75868e-015
rhumerus -17.4931 -41.1429 -34.6308
rradius 59.5232
rwrist -45.6205
rhand -3.11279 3.34106
rfingers 7.12502
rthumb 22.6057 -25.3553
lclavicle 3.33958e-014 6.75868e-015
lhumerus -28.9597 30.0937 27.1903
lradius 56.7963
lwrist 73.9389
lhand -30.8608 19.8634
lfingers 7.12502
lthumb -4.14872 49.8028
rfemur -25.9489 -6.34902 20.8355
rtibia 29.8255
rfoot -18.8554 -1.54466
rtoes 33.0163
lfemur -23.6451 -2.96293 -19.3072
ltibia 22.5152
lfoot -11.3813 1.20023
ltoes -33.0185
3825
root 19.554 17.9792 -16.4794 193.852 -192.517 -177.846
lowerback 18.692 -1.35168 3.25647
upperback 13.8032 -1.18436 1.75676
thorax 4.45222 -0.383566 0.215485
lowerneck 2.07975 2.34555 14.3464
upperneck 35.9738 4.47291 -7.9337
head 12.0229 3.08268 -5.20594
rclavicle 7.95139e-015 -3.73715e-014
rhumerus -17.6316 -40.9815 -34.7916
rradius 59.7743
rwrist -45.7173
rhand -3.24776 3.70123
rfingers 7.12502
rthumb 22.4762 -25.0108
lclavicle 7.95139e-015 -3.73715e-014
lhumerus -29.1538 29.9367 27.25
lradius 57.2115
lwrist 73.8464
lhand -30.608 19.567
lfingers 7.12502
lthumb -3.90461 49.511
rfemur -25.9604 -6.33694 20.8028
rtibia 29.8058
rfoot -18.7922 -1.56944
rtoes 32.8342
lfemur -23.6279 -3.0038 -19.341
ltibia 22.4826
lfoot -11.3727 1.17605
ltoes -32.4989
3826
root 19.5535 17.9802 -16.4782 193.903 -192.475 -177.86
lowerback 18.6248 -1.35152 3.25414
upperback 13.7776 -1.18846 1.78149
thorax 4.45804 -0.387614 0.242604
lowerneck 2.03937 2.50389 14.2239
upperneck 35.9807 4.64335 -7.75126
head 12.0534 3.15869 -5.09511
rclavicle -1.27222e-014 7.95139e-016
rhumerus -17.6698 -40.965 -34.9973
rradius 60.1084
rwrist -45.828
rhand -3.33326 3.61505
rfingers 7.12502
rthumb 22.3941 -25.1069
lclavicle -1.27222e-014 7.95139e-016
lhumerus -29.287 29.921 27.3336
lradius 57.6147
lwrist 73.8399
lhand -30.2642 19.3214
lfingers 7.12502
lthumb -3.57265 49.2712
rfemur -26.0509 -6.24723 20.7962
rtibia 29.8254
rfoot -18.7966 -1.44667
rtoes 33.3603
lfemur -23.6477 -2.9208 -19.3366
ltibia 22.4281
lfoot -11.4035 1.10842
ltoes -31.9674
3827
root 19.5535 17.9818 -16.4754 193.943 -192.476 -177.774
lowerback 18.5047 -1.34896 3.17115
upperback 13.79 -1.20237 1.77009
thorax 4.53316 -0.399052 0.277031
lowerneck 2.09433 2.58732 14.1813
upperneck 35.7678 4.71596 -7.59614
head 11.9593 3.19349 -5.01059
rclavicle -1.51076e-014 0
rhumerus -17.5901 -41.1706 -35.257
rradius 60.2847
rwrist -45.8499
rhand -3.21472 3.35638
rfingers 7.12502
rthumb 22.5079 -25.3518
lclavicle -1.51076e-014 0
lhumerus -29.4083 29.822 27.4337
lradius 58.1099
lwrist 73.9669
lhand -30.0389 19.217
lfingers 7.12502
lthumb -3.35503 49.1704
rfemur -26.096 -6.19049 20.6847
rtibia 29.8695
rfoot -18.8395 -1.43014
rtoes 34.0177
lfemur -23.6209 -2.89004 -19.4307
ltibia 22.366
lfoot -11.3906 0.980843
ltoes -31.1863
3828
root 19.5549 17.9803 -16.4705 193.942 -192.467 -177.666
lowerback 18.4675 -1.33477 3.05383
upperback 13.7443 -1.20029 1.75902
thorax 4.50127 -0.406687 0.330039
lowerneck 2.17737 2.65637 14.1323
upperneck 35.6521 4.78505 -7.46382
head 11.9007 3.22831 -4.93877
rclavicle 4.69132e-014 -4.69132e-014
rhumerus -17.4571 -41.1317 -35.5133
rradius 60.2164
rwrist -45.9043
rhand -3.25908 3.58655
rfingers 7.12502
rthumb 22.4653 -25.1268
lclavicle 4.69132e-014 -4.69132e-014
lhumerus -29.5482 29.6481 27.5876
lradius 58.6285
lwrist 74.069
lhand -30.0466 18.9557
lfingers 7.12502
lthumb -3.36246 48.9089
rfemur -26.0555 -6.30628 20.5893
rtibia 29.8983
rfoot -18.8582 -1.44165
rtoes 33.7986
lfemur -23.5526 -2.83914 -19.5765
ltibia 22.3345
lfoot -11.3912 1.04206
ltoes -32.2305
3829
root 19.5571 17.9768 -16.4657 193.932 -192.444 -177.76
lowerback 18.4479 -1.32155 3.16357
upperback 13.6379 -1.16862 1.7564
thorax 4.39056 -0.385421 0.260897
lowerneck 2.22489 2.77856 14.1413
upperneck 35.7083 4.90313 -7.26158
head 11.9322 3.30333 -4.85128
rclavicle 3.18055e-015 6.36111e-015
rhumerus -17.5326 -40.9867 -35.7078
rradius 60.1969
rwrist -45.9887
rhand -3.3143 4.04249
rfingers 7.12502
rthumb 22.4123 -24.6773
lclavicle 3.18055e-015 6.36111e-015
lhumerus -29.4652 29.4712 27.7551
lradius 58.8789
lwrist 73.9034
lhand -29.9451 18.7266
lfingers 7.12502
lthumb -3.26442 48.6813
rfemur -26.0403 -6.40956 20.7139
rtibia 29.8929
rfoot -18.9011 -1.36721
rtoes 33.4561
lfemur -23.5637 -2.8509 -19.4869
ltibia 22.3543
lfoot -11.4162 1.30361
ltoes -33.3687
3830
root 19.5582 17.9745 -16.4622 193.919 -192.463 -177.891
lowerback 18.443 -1.33413 3.34724
upperback 13.5281 -1.15907 1.74502
thorax 4.26783 -0.369826 0.144409
lowerneck 2.2503 2.8653 14.2132
upperneck 35.7794 4.98058 -7.11719
head 11.9718 3.36274 -4.80202
rclavicle 6.36111e-015 1.35174e-014
rhumerus -17.707 -40.9721 -35.9032
rradius 60.3316
rwrist -45.7333
rhand -3.51063 4.24232
rfingers 7.12502
rthumb 22.2238 -24.5
lclavicle 6.36111e-015 1.35174e-014
lhumerus -29.2938 29.2995 27.8979
lradius 58.9267
lwrist 73.5769
lhand -29.442 18.8099
lfingers 7.12502
lthumb -2.77854 48.7716
rfemur -25.9996 -6.42398 20.8496
rtibia 29.8334
rfoot -18.8954 -1.23851
rtoes 33.7816
lfemur -23.6345 -2.97979 -19.3128
ltibia 22.4443
lfoot -11.4726 1.43154
ltoes -32.9034
3831
root 19.5577 17.9739 -16.4585 193.87 -192.497 -177.918
lowerback 18.3831 -1.3383 3.39917
upperback 13.4946 -1.15998 1.73868
thorax 4.26007 -0.36676 0.107786
lowerneck 2.50023 2.92891 14.4522
upperneck 35.2979 5.10205 -7.22777
head 11.7477 3.42547 -4.86222
rclavicle 7.15625e-015 4.77083e-015
rhumerus -17.7979 -40.8492 -36.0811
rradius 60.4428
rwrist -45.4393
rhand -3.89329 4.49784
rfingers 7.12502
rthumb 21.8564 -24.2878
lclavicle 7.15625e-015 4.77083e-015
lhumerus -29.2738 29.2093 28.1097
lradius 59.1159
lwrist 73.2448
lhand -28.3591 18.7653
lfingers 7.12502
lthumb -1.73274 48.738
rfemur -25.8832 -6.44651 20.8702
rtibia 29.7525
rfoot -18.8601 -1.15103
rtoes 34.0428
lfemur -23.6442 -2.95511 -19.2846
ltibia 22.5499
lfoot -11.5468 1.287
ltoes -32.3438
3832
root 19.5579 17.9774 -16.4544 193.798 -192.525 -177.931
lowerback 18.3098 -1.34431 3.4084
upperback 13.4654 -1.17023 1.77837
thorax 4.26526 -0.37348 0.145136
lowerneck 3.17484 3.00005 14.6638
upperneck 34.2793 5.33503 -7.5245
head 11.2387 3.51048 -4.96684
rclavicle -2.38542e-015 1.59028e-015
rhumerus -17.8683 -40.3861 -36.1215
rradius 60.5092
rwrist -45.4975
rhand -4.19568 4.87508
rfingers 7.12502
rthumb 21.566 -23.9441
lclavicle -2.38542e-015 1.59028e-015
lhumerus -29.4696 29.178 28.3839
lradius 59.4274
lwrist 72.7748
lhand -26.9407 18.4829
lfingers 7.12502
lthumb -0.362797 48.4623
rfemur -25.7658 -6.47729 20.8889
rtibia 29.7051
rfoot -18.9058 -1.25684
rtoes 33.5458
lfemur -23.5439 -2.87779 -19.2866
ltibia 22.5829
lfoot -11.659 1.09905
ltoes -31.5453
3833
root 19.5594 17.9797 -16.4501 193.728 -192.559 -177.89
lowerback 18.3085 -1.38541 3.39571
upperback 13.3687 -1.22332 1.83492
thorax 4.15775 -0.405936 0.219909
lowerneck 3.806 3.07928 14.4264
upperneck 33.6547 5.52734 -7.51391
head 10.8807 3.5651 -4.8912
rclavicle -1.59028e-014 6.36111e-015
rhumerus -17.9615 -39.7427 -36.0788
rradius 60.5783
rwrist -45.684
rhand -4.21773 5.24578
rfingers 7.12502
rthumb 21.5449 -23.5759
lclavicle -1.59028e-014 6.36111e-015
lhumerus -29.754 29.0214 28.5815
lradius 59.6833
lwrist 72.5032
lhand -26.4609 18.2905
lfingers 7.12502
lthumb 0.100584 48.2702
rfemur -25.6886 -6.64514 20.8639
rtibia 29.716
rfoot -19.0263 -1.18925
rtoes 33.1857
lfemur -23.3867 -2.9723 -19.3228
ltibia 22.5275
lfoot -11.7795 1.16337
ltoes -31.636
3834
root 19.5606 17.9797 -16.4458 193.679 -192.608 -177.819
lowerback 18.2576 -1.41646 3.36622
upperback 13.3607 -1.26941 1.84781
thorax 4.17444 -0.431316 0.255906
lowerneck 3.81646 3.21613 14.2782
upperneck 33.5481 5.66882 -7.3196
head 10.8465 3.62525 -4.77514
rclavicle -3.02153e-014 1.59028e-015
rhumerus -17.9453 -39.4534 -36.1746
rradius 60.6017
rwrist -45.6853
rhand -3.8824 5.32222
rfingers 7.12502
rthumb 21.8669 -23.4622
lclavicle -3.02153e-014 1.59028e-015
lhumerus -29.834 28.7724 28.7091
lradius 59.8986
lwrist 72.6237
lhand -26.9024 18.0813
lfingers 7.12502
lthumb -0.325785 48.0608
rfemur -25.6371 -6.74374 20.7784
rtibia 29.7603
rfoot -19.118 -0.986088
rtoes 33.6692
lfemur -23.2439 -3.08513 -19.3934
ltibia 22.4376
lfoot -11.7898 1.27934
ltoes -32.3647
3835
root 19.5604 17.9798 -16.4429 193.641 -192.63 -177.753
lowerback 18.1622 -1.39572 3.27688
upperback 13.4717 -1.26097 1.82495
thorax 4.34821 -0.428862 0.278797
lowerneck 3.47418 3.33954 14.6626
upperneck 33.4143 5.79521 -7.44677
head 10.8954 3.70409 -4.8714
rclavicle 1.59028e-015 1.35174e-014
rhumerus -17.7815 -39.5658 -36.4025
rradius 60.5933
rwrist -45.6136
rhand -3.40696 5.01545
rfingers 7.12502
rthumb 22.3233 -23.715
lclavicle 1.59028e-015 1.35174e-014
lhumerus -29.6353 28.6527 28.8491
lradius 59.9414
lwrist 72.6576
lhand -27.0722 17.6239
lfingers 7.12502
lthumb -0.489822 47.6031
rfemur -25.5848 -6.59216 20.6669
rtibia 29.8114
rfoot -19.0766 -1.07151
rtoes 34.0616
lfemur -23.1238 -3.13339 -19.4579
ltibia 22.3536
lfoot -11.6739 1.32127
ltoes -32.3665
3836
root 19.5607 17.979 -16.4409 193.644 -192.591 -177.715
lowerback 18.0668 -1.35397 3.17934
upperback 13.4865 -1.22521 1.81255
thorax 4.41471 -0.416584 0.313608
lowerneck 3.39805 3.3988 15.0799
upperneck 33.2486 5.887 -7.64795
head 10.8802 3.76963 -5.00747
rclavicle 3.73715e-014 -1.74931e-014
rhumerus -17.6893 -39.5245 -36.5319
rradius 60.5464
rwrist -45.7056
rhand -2.68372 5.04644
rfingers 7.12502
rthumb 23.0175 -23.5991
lclavicle 3.73715e-014 -1.74931e-014
lhumerus -29.4622 28.6331 28.9676
lradius 59.8019
lwrist 72.3928
lhand -26.6198 17.3053
lfingers 7.12502
lthumb -0.0528565 47.285
rfemur -25.603 -6.53018 20.6167
rtibia 29.8577
rfoot -19.0299 -1.16377
rtoes 33.9529
lfemur -23.0906 -3.15979 -19.4948
ltibia 22.2923
lfoot -11.5624 1.32989
ltoes -32.0256
3837
root 19.5612 17.9793 -16.4393 193.616 -192.606 -177.764
lowerback 18.0755 -1.35393 3.21467
upperback 13.3432 -1.21784 1.83612
thorax 4.24953 -0.414974 0.317954
lowerneck 3.72549 3.39253 15.3452
upperneck 33.1724 5.97342 -7.88329
head 10.8174 3.82499 -5.13929
rclavicle 3.02153e-014 -8.74653e-015
rhumerus -17.7316 -39.1051 -36.5581
rradius 60.409
rwrist -45.8281
rhand -1.74677 5.36453
rfingers 7.12502
rthumb 23.9163 -23.1661
lclavicle 3.02153e-014 -8.74653e-015
lhumerus -29.4699 28.4819 29.031
lradius 59.6517
lwrist 72.0769
lhand -26.0898 17.257
lfingers 7.12502
lthumb 0.458972 47.2362
rfemur -25.5985 -6.64874 20.6955
rtibia 29.8893
rfoot -19.136 -1.14972
rtoes 33.6385
lfemur -23.0863 -3.1433 -19.4472
ltibia 22.2743
lfoot -11.5315 1.24541
ltoes -31.6971
